#N canvas 213 183 450 300 10;
#X obj 12 5 r freq @hv_param 100 2000 500;
#X obj 12 30 osc~;
#X obj 12 81 *~;
#X obj 51 61 line~;
#X obj 51 44 \$1 100;
#X obj 50 27 r gain @hv_param 0 1 0.5;
#X obj 13 105 dac~;
#X connect 0 0 1 0;
#X connect 1 0 2 0;
#X connect 2 0 6 0;
#X connect 2 0 6 1;
#X connect 3 0 2 1;
#X connect 4 0 3 0;
#X connect 5 0 4 0;
